<?xml version="1.0" encoding="UTF-8" standalone="no"?>
<!DOCTYPE svg PUBLIC "-//W3C//DTD SVG 1.0//EN" "http://www.w3.org/TR/2001/REC-SVG-20010904/DTD/svg10.dtd">
<!-- Created with Inkscape (http://www.inkscape.org/) -->
<svg
   xmlns:i="http://ns.adobe.com/AdobeIllustrator/10.0/"
   xmlns:svg="http://www.w3.org/2000/svg"
   xmlns="http://www.w3.org/2000/svg"
   xmlns:xlink="http://www.w3.org/1999/xlink"
   version="1.0"
   width="603"
   height="763"
   id="svg20">
  <defs
     id="defs29">
    <linearGradient
       id="linearGradient2893">
      <stop
         style="stop-color:white;stop-opacity:0.3137255"
         offset="0"
         id="stop2895" />
      <stop
         style="stop-color:white;stop-opacity:0.25098041"
         offset="0.19"
         id="stop2897" />
      <stop
         style="stop-color:#6b6b6b;stop-opacity:0.1254902"
         offset="0.60000002"
         id="stop2901" />
      <stop
         style="stop-color:black;stop-opacity:0.1254902"
         offset="1"
         id="stop2899" />
    </linearGradient>
    <linearGradient
       id="linearGradient2955">
      <stop
         style="stop-color:white;stop-opacity:0"
         offset="0"
         id="stop2965" />
      <stop
         style="stop-color:black;stop-opacity:0.64583331"
         offset="1"
         id="stop2959" />
    </linearGradient>
    <radialGradient
       cx="858.04236"
       cy="579.93323"
       r="300"
       fx="858.04236"
       fy="579.93323"
       id="radialGradient3236"
       xlink:href="#linearGradient2893"
       gradientUnits="userSpaceOnUse"
       gradientTransform="matrix(1.215027,0,0,1.266667,-839.1924,-490.4894)" />
  </defs>
  <desc
     id="desc22">Coat of Arms of Canton of Freiburg (Fribourg)</desc>
  <g
     style="opacity:1"
     id="layer1">
    <path
       d="M 1.5,1.49998 L 1.5,460.3679 C 1.5,626.6785 135.81456,761.5 301.49999,761.5 C 467.18543,761.5 601.5,626.6785 601.5,460.3679 L 601.5,1.49998 L 1.5,1.49998 z "
       style="fill:#e20909;fill-opacity:1"
       id="path1899" />
    <path
       d="M 601.5,290.019 L 141.522,1.5 L 1.5,1.5 L 1.5,382.23 L 494.114,691.22 C 559.753,635.98 601.5,553.074 601.5,460.368 L 601.5,290.019 z "
       style="opacity:1;fill:#fcef3c;stroke:black;stroke-width:2.70000005;stroke-linecap:round;stroke-linejoin:round;stroke-miterlimit:4;stroke-dasharray:none;stroke-opacity:1"
       id="path2015" />
  </g>
  <g
     style="opacity:1"
     id="layer2">
    <path
       d="M 116.616,118.874 C 116.616,118.874 107.915,128.521 113.495,140.713 C 113.495,140.713 116.926,128.199 125.735,124.557 L 116.616,118.874 z "
       style="fill:white;stroke:black;stroke-width:2.5;stroke-linecap:round;stroke-linejoin:round"
       id="path2017" />
    <path
       d="M 114.64,163.286 C 114.64,163.286 113.722,151.506 119.409,144.918 C 119.409,144.918 119.256,158.979 122.818,166.05 L 114.64,163.286 z "
       style="fill:white;stroke:black;stroke-width:2.5;stroke-linecap:round;stroke-linejoin:round"
       id="path2019" />
    <path
       d="M 56.397,83.396 C 56.397,83.396 45.838,107.588 73.347,127.745 C 100.856,147.9 122.671,149.868 149.083,166.582 L 150.247,161.03 C 150.247,161.03 145.105,155.017 128.157,145.924 C 111.207,136.83 93.353,132.811 78.07,117.696 C 65.481,105.246 60.592,95.697 56.397,83.396 z "
       style="fill:#e20909;stroke:black;stroke-width:2.5;stroke-linecap:round;stroke-linejoin:round"
       id="path2021" />
    <path
       d="M 100.705,111.511 C 100.705,111.511 91.586,121.622 97.433,134.399 C 97.433,134.399 101.03,121.286 110.262,117.467 L 100.705,111.511 z "
       style="fill:white;stroke:black;stroke-width:2.5;stroke-linecap:round;stroke-linejoin:round"
       id="path2023" />
    <path
       d="M 249.615,101.485 C 252.422,96.786 252.98,91.085 250.049,86.34 C 243.477,75.706 231.467,74.086 223.305,78.932 C 220.064,80.857 218.612,84.105 218.036,87.322 C 226.978,93.548 234.418,99.824 237.874,102.842 C 240.568,102.218 244.869,101.451 249.615,101.485 z M 194.061,237.759 C 185.081,242.282 174.385,249.885 159.998,262.521 C 141.394,278.861 123.45,292.757 110.998,298.679 C 110.998,298.679 110.623,307.459 113.714,316.215 C 113.714,316.215 105.125,311.171 105.889,288.977 C 106.529,270.401 126.253,250.9 126.425,245.91 C 126.636,239.794 113.668,227.779 91.326,231.093 C 68.984,234.406 46.799,239.765 46.526,260.85 C 46.254,281.934 44.442,295.026 62.066,310.149 C 62.066,310.149 56.605,310.641 50.089,308.831 C 50.089,308.831 59.191,334.32 73.401,343.202 C 86.589,351.445 144.302,354.644 214.499,322.767 C 215.342,290.609 207.973,261.38 194.061,237.759 z M 106.591,246.162 C 106.458,246.231 93.177,253.234 90.249,267.528 C 88.575,275.697 90.655,285.251 92.857,295.37 C 94.68,303.747 96.566,312.409 96.282,320.643 C 95.931,330.825 90.074,339.098 89.825,339.445 C 89.009,340.583 87.418,340.844 86.28,340.03 C 85.141,339.215 84.877,337.624 85.69,336.485 C 85.743,336.412 90.904,329.042 91.2,320.467 C 91.461,312.869 89.645,304.524 87.886,296.441 C 85.669,286.258 83.378,275.727 85.266,266.507 C 88.707,249.71 103.648,241.952 104.283,241.63 C 105.53,240.996 107.063,241.496 107.697,242.743 C 108.334,243.991 107.837,245.524 106.591,246.162 C 106.59,246.163 106.591,246.162 106.591,246.162 z M 544.072,344.939 C 551.128,348.224 556.173,370.805 556.173,370.805 C 572.12,351.004 574.607,308.352 485.936,253.399 C 397.267,198.448 311.47,178.193 311.47,178.193 C 314.659,174.233 323.806,174.547 323.806,174.547 C 315.99,165.12 302.707,166.698 302.707,166.698 C 306.947,161.756 316.166,160.038 316.166,160.038 C 316.166,160.038 295.416,142.025 272.776,149.385 C 250.135,156.745 246.56,142.376 246.56,142.376 C 272.145,138.17 270.706,120.822 266.851,114.583 C 258.691,101.378 236.537,108.451 236.537,108.451 C 236.537,108.451 209.9,84.13 188.767,77.296 C 167.633,70.462 157.961,85.393 143.731,84.902 C 129.502,84.412 107.773,65.347 107.773,65.347 C 105.687,72.536 98.811,85.562 91.286,96.249 C 83.762,106.936 110.664,123.874 121.823,126.35 C 133.904,129.03 141.155,135.829 147.14,148.331 C 153.157,160.9 143.508,168.389 136.411,167.268 C 107.956,162.776 100.742,151.725 98.581,153.335 C 93.31,157.26 85.14,164.659 88.344,169.4 C 91.549,174.141 92.187,167.848 130.495,180.114 C 191.646,199.694 222.019,260.729 219.817,324.645 C 218.353,367.114 192.113,432.304 190.43,432.248 C 188.748,432.189 186.384,403.06 183.064,401.682 C 158.273,391.399 138.825,402.684 130.663,419.664 C 122.5,436.643 149.107,458.608 156.517,463.495 C 163.926,468.38 208.193,466.539 220.503,463.595 C 232.814,460.653 244.848,441.281 251.589,428.883 C 258.331,416.487 253.054,410.83 280.659,354.947 C 294.744,326.435 305.51,305.706 305.51,305.706 C 297.753,298.702 296.825,288.987 296.825,288.987 C 296.825,288.987 312.383,301.733 311.818,305.923 C 311.254,310.114 297.883,331.544 297.883,331.544 C 297.883,331.544 332.35,333.153 352.926,334.704 C 423.511,340.024 423.494,351.449 423.494,351.449 C 423.494,351.449 398.7,350.173 380.055,353.741 C 361.407,357.308 343.848,365.965 343.052,389.093 C 342.256,412.22 349.653,477.956 349.653,477.956 C 355.904,488.184 373.301,488.646 373.301,488.646 C 359.281,498 347.173,482.952 339.254,474.843 C 332.965,468.399 328.712,463.114 323.681,462.518 C 288.144,458.316 274.312,490.286 273.5,501.626 C 272.687,512.963 276.168,521.925 283.316,522.171 C 295.51,522.591 325.786,535.844 345.129,536.51 C 364.471,537.176 390.644,522.921 398.936,514.366 C 407.232,505.812 412.276,469.359 412.493,463.053 C 412.711,456.744 442.217,419.032 442.217,419.032 C 442.703,401.979 441.816,387.157 440.202,374.459 C 441.9,375.298 443.49,376.296 444.874,377.525 C 445.649,378.213 446.669,378.506 447.66,378.387 C 450.078,399.555 450.076,419.778 450.729,428.586 C 452.165,448.002 466.272,478.376 471.813,488.672 C 477.351,498.965 482.456,509.667 490.851,534.794 C 499.248,559.92 489.214,570.102 486.69,570.014 C 484.168,569.927 487.169,556.138 481.948,548.801 C 476.73,541.464 449.222,533.36 437.667,538.855 C 421.078,546.744 416.208,575.164 416.311,596.638 C 416.413,618.113 427.432,615.964 433.405,613.644 C 448.667,607.719 492.217,605.148 496.046,604.015 C 499.873,602.885 513.764,590.735 521.637,582.164 C 543.389,558.485 543.821,549.249 546.865,534.199 C 556.882,484.681 553.707,408.978 552.318,394.078 C 550.469,374.19 544.072,344.939 544.072,344.939 z M 372.828,524.178 C 371.748,525.075 370.145,524.931 369.248,523.85 C 368.348,522.772 368.495,521.169 369.574,520.269 C 370.694,519.336 370.72,518.572 370.614,518.013 C 370.375,516.72 367.732,509.784 339.334,500.186 C 307.36,489.38 305.258,476.532 305.124,475.102 C 304.994,473.732 305.983,472.544 307.352,472.378 C 308.719,472.209 309.974,473.196 310.18,474.561 C 310.195,474.67 312.155,485.635 340.96,495.371 C 362.634,502.694 374.293,510 375.613,517.083 C 376.11,519.748 375.121,522.269 372.828,524.178 z M 436.389,352.745 C 430.714,327.96 423.032,316.069 423.032,316.069 C 433.676,322.996 440.019,338.109 443.877,355.247 C 442.047,354.36 439.476,353.347 436.389,352.745 z "
       style="stroke:black;stroke-width:2;stroke-linecap:round;stroke-linejoin:round"
       id="path2025" />
    <path
       d="M 101.036,140.313 C 101.036,140.313 95.946,153.073 98.921,158.442 C 99.857,160.129 106.324,159.69 106.387,157.871 C 106.45,156.054 102.552,149.136 101.036,140.313 z "
       style="fill:white;stroke:black;stroke-width:2.5;stroke-linecap:round;stroke-linejoin:round"
       id="path2027" />
    <path
       d="M 177.084,87.797 C 177.084,87.797 185.561,90.273 186.179,99.052 C 186.505,103.682 183.088,104.052 182.787,112.794"
       style="fill:none;stroke:white;stroke-width:2.5;stroke-linecap:round;stroke-linejoin:round"
       id="path2029" />
    <path
       d="M 178.768,95.394 C 178.768,95.394 168.886,92.864 164.984,100.268 C 161.082,107.671 172.428,117.058 175.109,116.907 C 177.789,116.757 177.672,113.106 175.36,109.622 C 173.049,106.138 172.554,101.535 177.612,100.703 C 178.834,100.501 180.576,99.346 178.768,95.394 z "
       style="fill:white"
       id="path2031" />
    <path
       d="M 447.237,374.864 C 446.6,369.843 445.82,364.802 444.853,359.88 C 444.853,359.88 435.421,353.216 423.96,356.884 C 412.499,360.552 405.99,365.325 407.572,367.013 C 408.776,368.299 434.313,363.391 447.237,374.864 z "
       style="fill:#e20909;stroke:black;stroke-width:2.5;stroke-linecap:round;stroke-linejoin:round"
       id="path2033" />
    <path
       d="M 26.743,247.214 C 26.743,247.214 37.354,234.625 56.178,243.293 C 56.178,243.293 55.86,252.535 48.488,251.665 C 48.487,251.665 42.208,245.896 26.743,247.214 z "
       style="fill:#e20909;stroke:black;stroke-width:2.5;stroke-linecap:round;stroke-linejoin:round"
       id="path2035" />
    <path
       d="M 44.566,222.229 C 44.566,222.229 63.206,218.241 77.486,233.541 C 77.486,233.541 72.515,243.547 63.444,238.3 C 63.443,238.3 59.778,228.305 44.566,222.229 z "
       style="fill:#e20909;stroke:black;stroke-width:2.5;stroke-linecap:round;stroke-linejoin:round"
       id="path2037" />
    <path
       d="M 74.724,206.305 C 74.724,206.305 90.371,208.695 95.502,229.844 C 95.502,229.844 89.117,236.101 82.149,232.468 C 82.149,232.468 83.158,221.092 74.724,206.305 z "
       style="fill:#e20909;stroke:black;stroke-width:2.5;stroke-linecap:round;stroke-linejoin:round"
       id="path2039" />
    <path
       d="M 105.582,205.825 C 105.582,205.825 117.374,212.708 114.507,233.274 C 114.507,233.274 108.238,236.142 103.204,230.108 C 103.203,230.108 109.099,220.134 105.582,205.825 z "
       style="fill:#e20909;stroke:black;stroke-width:2.5;stroke-linecap:round;stroke-linejoin:round"
       id="path2041" />
    <path
       d="M 131.799,223.692 C 131.799,223.692 129.632,232.871 119.636,236.536 C 119.636,236.536 118.426,244.821 127.327,246.054 C 127.327,246.054 134.785,235.515 131.799,223.692 z "
       style="fill:#e20909;stroke:black;stroke-width:2.5;stroke-linecap:round;stroke-linejoin:round"
       id="path2043" />
    <path
       d="M 113.322,437.716 C 113.322,437.716 113.384,437.618 113.504,437.441 C 114.598,435.815 120.574,427.577 130.074,425.958 C 130.074,425.958 136.713,430.196 132.55,434.679 C 132.549,434.678 124.815,435.336 113.322,437.716 z "
       style="fill:#e20909;stroke:black;stroke-width:2.5;stroke-linecap:round;stroke-linejoin:round"
       id="path2045" />
    <path
       d="M 133.93,421.464 C 133.93,421.464 121.745,417.034 109.816,423.102 C 109.816,423.102 117.124,404.662 138.613,410.831 C 141.057,411.53 139.824,420.433 133.93,421.464 z "
       style="fill:#e20909;stroke:black;stroke-width:2.5;stroke-linecap:round;stroke-linejoin:round"
       id="path2047" />
    <path
       d="M 124.018,395.832 C 124.018,395.832 138.453,397.564 145.826,407.378 C 145.826,407.378 152.911,407.622 153.144,400.845 C 153.144,400.845 154.859,395.417 138.06,391.073 C 132.558,389.649 125.622,394.036 124.018,395.832 z "
       style="fill:#e20909;stroke:black;stroke-width:2.5;stroke-linecap:round;stroke-linejoin:round"
       id="path2049" />
    <path
       d="M 149.522,380.672 C 149.522,380.672 158.732,390.86 158.413,400.101 C 158.413,400.101 162.578,404.562 168.314,399.209 C 168.314,399.209 166.063,384.019 149.522,380.672 z "
       style="fill:#e20909;stroke:black;stroke-width:2.5;stroke-linecap:round;stroke-linejoin:round"
       id="path2051" />
    <path
       d="M 175.43,380.641 C 175.43,380.641 185.364,387.768 184.524,403.159 C 184.524,403.159 177.375,404.765 174.465,399.731 C 174.465,399.73 179.637,392.813 175.43,380.641 z "
       style="fill:#e20909;stroke:black;stroke-width:2.5;stroke-linecap:round;stroke-linejoin:round"
       id="path2053" />
    <path
       d="M 277.942,520.495 C 277.942,520.495 268.796,517.403 258.195,529.684 C 258.195,529.684 257.226,512.994 273.459,507.387 C 273.459,507.388 283.222,510.5 277.942,520.495 z "
       style="fill:#e20909;stroke:black;stroke-width:2.5;stroke-linecap:round;stroke-linejoin:round"
       id="path2055" />
    <path
       d="M 277.846,487.489 C 277.846,487.489 266.162,486.47 254.636,498.718 C 254.636,498.718 265.545,495.394 273.725,499.683 C 273.725,499.684 282.51,495.36 277.846,487.489 z "
       style="fill:#e20909;stroke:black;stroke-width:2.5;stroke-linecap:round;stroke-linejoin:round"
       id="path2057" />
    <path
       d="M 263.568,472.192 C 263.568,472.192 274.851,463.267 290.113,471.566 C 293.142,473.211 286.97,482.254 282.073,481.159 C 282.073,481.159 276.156,473.86 263.568,472.192 z "
       style="fill:#e20909;stroke:black;stroke-width:2.5;stroke-linecap:round;stroke-linejoin:round"
       id="path2059" />
    <path
       d="M 275.88,455.038 C 275.88,455.038 287.172,458.51 292.652,469.494 C 292.652,469.494 301.194,472.258 303.594,465.245 C 303.595,465.245 292.759,448.527 275.88,455.038 z "
       style="fill:#e20909;stroke:black;stroke-width:2.5;stroke-linecap:round;stroke-linejoin:round"
       id="path2061" />
    <path
       d="M 303.924,446.751 C 303.924,446.751 317.106,449.056 323.183,460.678 C 323.183,460.678 319.008,465.469 311.7,462.749 C 311.699,462.749 312.007,453.816 303.924,446.751 z "
       style="fill:#e20909;stroke:black;stroke-width:2.5;stroke-linecap:round;stroke-linejoin:round"
       id="path2063" />
    <path
       d="M 417.559,603.953 C 417.559,603.953 410.588,609.265 410.633,625.921 C 410.633,625.921 416.368,616.357 424.888,615.001 C 424.888,615.001 426.173,604.56 417.559,603.953 z "
       style="fill:#e20909;stroke:black;stroke-width:2.5;stroke-linecap:round;stroke-linejoin:round"
       id="path2065" />
    <path
       d="M 416.409,592.501 C 416.409,592.501 406.02,589.677 393.466,596.029 C 393.466,596.029 397.799,577.673 416.877,578.946 C 416.877,578.946 424.259,588.455 416.409,592.501 z "
       style="fill:#e20909;stroke:black;stroke-width:2.5;stroke-linecap:round;stroke-linejoin:round"
       id="path2067" />
    <path
       d="M 393.146,569.495 C 393.146,569.495 402.75,554.799 422.176,559.391 C 422.176,559.391 427.383,569.44 417.653,574.347 C 417.652,574.348 409.845,568.22 393.146,569.495 z "
       style="fill:#e20909;stroke:black;stroke-width:2.5;stroke-linecap:round;stroke-linejoin:round"
       id="path2069" />
    <path
       d="M 407.156,538.825 C 407.156,538.825 419.363,533.695 433.872,542.215 C 433.872,542.215 435.318,553.986 424.197,554.527 C 424.197,554.526 419.861,546.049 407.156,538.825 z "
       style="fill:#e20909;stroke:black;stroke-width:2.5;stroke-linecap:round;stroke-linejoin:round"
       id="path2071" />
    <path
       d="M 435.271,519.438 C 435.271,519.438 448.53,519.587 456.53,538.059 C 456.53,538.059 450.126,544.933 440.766,539.06 C 440.767,539.061 442.582,531.104 435.271,519.438 z "
       style="fill:#e20909;stroke:black;stroke-width:2.5;stroke-linecap:round;stroke-linejoin:round"
       id="path2073" />
  </g>
  <g
     style="display:inline"
     id="layer3">
    <path
       d="M 1.5,1.5 L 1.5,460.3679 C 1.5,626.67854 135.81454,761.5 301.49993,761.5 C 467.1854,761.5 601.5,626.67854 601.5,460.3679 L 601.5,1.5 L 1.5,1.5 z "
       style="fill:url(#radialGradient3236);fill-opacity:1"
       id="path2346" />
  </g>
  <g
     style="display:inline"
     id="layer4">
    <path
       d="M 1.5,1.5 L 1.5,460.36794 C 1.5,626.67854 135.81454,761.5 301.49993,761.5 C 467.1854,761.5 601.5,626.67854 601.5,460.36794 L 601.5,1.5 L 1.5,1.5 z "
       style="fill:none;fill-opacity:1;stroke:black;stroke-width:3;stroke-miterlimit:4;stroke-dasharray:none;stroke-opacity:1"
       id="path3239" />
  </g>
</svg>
