<?xml version="1.0" encoding="UTF-8" standalone="no"?>
<!-- Created with Inkscape (http://www.inkscape.org/) -->
<svg
   xmlns:dc="http://purl.org/dc/elements/1.1/"
   xmlns:cc="http://creativecommons.org/ns#"
   xmlns:rdf="http://www.w3.org/1999/02/22-rdf-syntax-ns#"
   xmlns:svg="http://www.w3.org/2000/svg"
   xmlns="http://www.w3.org/2000/svg"
   xmlns:sodipodi="http://sodipodi.sourceforge.net/DTD/sodipodi-0.dtd"
   xmlns:inkscape="http://www.inkscape.org/namespaces/inkscape"
   id="svg1923"
   sodipodi:version="0.32"
   inkscape:version="0.46"
   width="178"
   height="229"
   version="1.0"
   sodipodi:docbase="C:\Documents and Settings\guillermo\Mis documentos\Mis imágenes\Nueva carpeta"
   sodipodi:docname="Türkiye_arması.svg"
   inkscape:output_extension="org.inkscape.output.svg.inkscape">
  <metadata
     id="metadata1928">
    <rdf:RDF>
      <cc:Work
         rdf:about="">
        <dc:format>image/svg+xml</dc:format>
        <dc:type
           rdf:resource="http://purl.org/dc/dcmitype/StillImage" />
      </cc:Work>
    </rdf:RDF>
  </metadata>
  <defs
     id="defs1926">
    <inkscape:perspective
       sodipodi:type="inkscape:persp3d"
       inkscape:vp_x="0 : 114.5 : 1"
       inkscape:vp_y="0 : 1000 : 0"
       inkscape:vp_z="178 : 114.5 : 1"
       inkscape:persp3d-origin="89 : 76.333333 : 1"
       id="perspective10" />
  </defs>
  <sodipodi:namedview
     inkscape:window-height="750"
     inkscape:window-width="1280"
     inkscape:pageshadow="2"
     inkscape:pageopacity="0.0"
     guidetolerance="10.0"
     gridtolerance="10.0"
     objecttolerance="10.0"
     borderopacity="1.0"
     bordercolor="#666666"
     pagecolor="#ffffff"
     id="base"
     inkscape:zoom="2.2073171"
     inkscape:cx="93"
     inkscape:cy="112"
     inkscape:window-x="-8"
     inkscape:window-y="-8"
     inkscape:current-layer="svg1923"
     width="178px"
     height="229px"
     showguides="true"
     inkscape:guide-bbox="true"
     showgrid="false" />
  <path
     sodipodi:type="arc"
     style="fill:#E30A17;fill-opacity:1;fill-rule:evenodd;stroke:none;stroke-width:0.31168618999999997;stroke-linecap:butt;stroke-linejoin:round;stroke-miterlimit:4;stroke-dasharray:none;stroke-dashoffset:0;stroke-opacity:1"
     id="path1932"
     sodipodi:cx="97.652283"
     sodipodi:cy="112.5"
     sodipodi:rx="22.271574"
     sodipodi:ry="42.258884"
     d="M 119.92386 112.5 A 22.271574 42.258884 0 1 1  75.380709,112.5 A 22.271574 42.258884 0 1 1  119.92386 112.5 z"
     transform="matrix(3.883875,0,0,2.65033,-290.2692,-183.6622)" />
  <path
     style="fill:white;fill-opacity:1;fill-rule:evenodd;stroke:white;stroke-width:0.87373739;stroke-linecap:butt;stroke-linejoin:round;stroke-miterlimit:4;stroke-dasharray:none;stroke-dashoffset:0;stroke-opacity:1"
     d="M 107.65625,113.8125 C 115.21423,119.63166 120.125,128.91959 120.125,139.375 C 120.125,156.9841 106.23258,171.28125 89.125,171.28125 C 72.017421,171.28124 58.125,156.98411 58.125,139.375 C 58.125,129.06514 62.902027,119.89539 70.28125,114.0625 C 57.753404,120.81475 49.25,134.06084 49.25,149.28125 C 49.25,171.34837 67.151629,189.25 89.21875,189.25 C 111.28587,189.25 129.1875,171.34837 129.1875,149.28125 C 129.1875,133.86026 120.45543,120.47962 107.65625,113.8125 z "
     id="path1934" />
  <path
     sodipodi:type="star"
     style="fill:white;fill-opacity:1;fill-rule:evenodd;stroke:white;stroke-width:1.07342136;stroke-linecap:butt;stroke-linejoin:round;stroke-miterlimit:4;stroke-dasharray:none;stroke-dashoffset:0;stroke-opacity:1"
     id="path1961"
     sodipodi:sides="5"
     sodipodi:cx="86.414192"
     sodipodi:cy="96.388222"
     sodipodi:r1="19.542765"
     sodipodi:r2="7.3094149"
     sodipodi:arg1="-2.2417848"
     sodipodi:arg2="-1.6171913"
     inkscape:flatsided="false"
     inkscape:rounded="0"
     inkscape:randomized="0"
     d="M 74.263274,81.082183 L 86.075194,89.086672 L 97.21626,80.102185 L 93.253622,93.809512 L 105.24116,101.62894 L 90.980191,102.09604 L 87.247828,115.9132 L 82.396705,102.49456 L 68.102444,103.21461 L 79.36525,94.454326 L 74.263274,81.082183 z "
     transform="matrix(0.930632,4.343852e-2,-4.344271e-2,0.930543,12.32051,4.252772)" />
  <path
     style="font-size:24px;font-style:normal;font-variant:normal;font-weight:normal;font-stretch:normal;text-align:start;line-height:125%;writing-mode:lr-tb;text-anchor:start;fill:white;fill-opacity:1;stroke:none;stroke-width:1px;stroke-linecap:butt;stroke-linejoin:miter;stroke-opacity:1;font-family:Arial Black"
     d="M 34.012478,144.31863 L 17.53039,148.07378 L 18.892898,153.86786 L 15.536939,154.63245 L 11.887925,139.11498 L 15.243884,138.35038 L 16.603259,144.13114 L 33.085347,140.37599 L 34.012478,144.31863 z M 10.607362,132.73853 L 10.325876,128.70115 L 21.328545,127.95793 C 23.074569,127.84 24.202757,127.71354 24.713115,127.57856 C 25.532511,127.34964 26.171281,126.89308 26.629427,126.2089 C 27.087582,125.52474 27.277351,124.61887 27.198734,123.49131 C 27.118856,122.34558 26.820745,121.49779 26.3044,120.94795 C 25.788065,120.39814 25.179342,120.08752 24.478231,120.0161 C 23.777133,119.9447 22.62286,119.96329 21.015409,120.07186 L 9.7771653,120.83099 L 9.4956781,116.79361 L 20.165774,116.07286 C 22.604661,115.90813 24.335188,115.90087 25.357357,116.05107 C 26.379539,116.2013 27.257504,116.54626 27.991255,117.08596 C 28.725013,117.62568 29.331674,118.37268 29.811242,119.32696 C 30.290811,120.28127 30.585752,121.54953 30.696064,123.13173 C 30.829199,125.04131 30.706135,126.50453 30.32687,127.5214 C 29.947607,128.53829 29.419965,129.35734 28.743946,129.97857 C 28.067931,130.59981 27.34364,131.02788 26.57107,131.26278 C 25.425451,131.60511 23.716345,131.85303 21.443745,132.00654 L 10.607362,132.73853 z M 9.2018055,129.35265 L 5.8622042,129.57824 L 5.6330203,126.29105 L 8.9726217,126.06546 L 9.2018055,129.35265 z M 8.7928883,123.48754 L 5.4532869,123.71313 L 5.2231521,120.4123 L 8.5627535,120.18671 L 8.7928883,123.48754 z M 29.504843,111.34748 L 9.221047,109.58659 L 9.9812982,101.10195 C 10.172499,98.968317 10.493586,97.433837 10.944561,96.498502 C 11.395572,95.5632 12.112919,94.845441 13.096603,94.345223 C 14.080318,93.845043 15.171733,93.646993 16.370852,93.751073 C 17.892841,93.88322 19.110166,94.432672 20.022834,95.399432 C 20.93552,96.366228 21.442489,97.736983 21.543743,99.511701 C 22.1384,98.684943 22.770153,98.014653 23.439008,97.500831 C 24.107874,96.98704 25.274081,96.317398 26.937634,95.491903 L 31.113207,93.397631 L 30.681219,98.21876 L 26.006341,100.75006 C 24.336282,101.64818 23.27893,102.27009 22.834283,102.61578 C 22.389649,102.96148 22.072111,103.34109 21.881671,103.7546 C 21.691244,104.16812 21.554537,104.83793 21.471548,105.76401 L 21.39833,106.58115 L 29.866054,107.31626 L 29.504843,111.34748 z M 18.160671,106.30008 L 18.427918,103.31752 C 18.601212,101.38363 18.626396,100.16887 18.503469,99.67324 C 18.380563,99.177635 18.128378,98.776019 17.746913,98.46839 C 17.36547,98.160791 16.870349,97.980559 16.261546,97.927693 C 15.578977,97.868451 15.011769,97.999922 14.559924,98.322106 C 14.108108,98.644319 13.797561,99.12747 13.628281,99.771559 C 13.552889,100.09442 13.441967,101.07299 13.295513,102.70726 L 13.013623,105.85325 L 18.160671,106.30008 z M 31.14465,91.944509 L 11.396068,87.059899 L 12.398045,83.135041 L 21.167708,85.304128 L 14.422307,75.205769 L 15.76956,69.928427 L 21.592987,79.150288 L 35.619692,74.415248 L 34.323217,79.493695 L 23.690946,82.544967 L 26.178944,86.543606 L 32.146626,88.019652 L 31.14465,91.944509 z M 37.024954,73.709141 L 17.998029,66.569772 L 19.462522,62.788338 L 38.489448,69.927707 L 37.024954,73.709141 z M 16.985107,65.999489 L 13.532746,64.704078 L 14.898286,61.178146 L 18.350648,62.473557 L 16.985107,65.999489 z M 42.661246,61.770127 L 35.164536,57.68259 L 21.234697,58.48038 L 23.570175,54.330407 L 32.939341,54.04677 L 28.167094,46.162017 L 30.462188,42.083802 L 37.174329,54.167765 L 44.646739,58.242052 L 42.661246,61.770127 z M 48.526955,50.491972 L 33.496022,36.970604 L 43.681607,26.000476 L 46.224356,28.287856 L 38.8124,36.270719 L 42.144632,39.268293 L 49.04122,31.840497 L 51.573716,34.118653 L 44.677129,41.54645 L 48.768085,45.226549 L 56.442412,36.961107 L 58.97491,39.239264 L 48.526955,50.491972 z M 76.484998,22.743583 L 80.662761,22.55882 C 80.855163,24.819618 80.470178,26.689541 79.507807,28.168595 C 78.545406,29.647663 77.038521,30.757952 74.987149,31.499467 C 72.448988,32.416941 70.044422,32.317577 67.773445,31.201375 C 65.502462,30.08518 63.814735,28.046912 62.71026,25.086567 C 61.541946,21.955123 61.456008,19.226192 62.452445,16.899765 C 63.448888,14.573374 65.285723,12.926298 67.962954,11.958532 C 70.30118,11.11335 72.45422,11.107011 74.422083,11.939514 C 75.591363,12.429588 76.674222,13.34898 77.670662,14.697695 L 74.185565,16.976984 C 73.595656,16.083324 72.836807,15.483749 71.90902,15.178258 C 70.981218,14.872806 70.004475,14.905449 68.978787,15.276189 C 67.561939,15.788358 66.599122,16.70441 66.090333,18.024347 C 65.581541,19.344317 65.745313,21.125115 66.58165,23.366745 C 67.469058,25.745293 68.535712,27.282256 69.781617,27.977642 C 71.027513,28.67304 72.345846,28.769375 73.736623,28.266644 C 74.762306,27.895892 75.524869,27.256131 76.024317,26.347359 C 76.523742,25.438605 76.677302,24.237347 76.484998,22.743583 L 76.484998,22.743583 z M 85.191273,8.2597606 L 89.289674,8.5812933 L 88.413432,19.402444 C 88.274375,21.119662 88.235017,22.23665 88.295361,22.753414 C 88.404522,23.584897 88.769051,24.274111 89.388952,24.82106 C 90.008837,25.368016 90.891082,25.686391 92.03569,25.776186 C 93.198738,25.867434 94.094592,25.702272 94.723255,25.280699 C 95.351891,24.859132 95.753805,24.312339 95.928996,23.640317 C 96.104158,22.968303 96.255754,21.841833 96.383784,20.260903 L 97.278786,9.2080648 L 101.37719,9.5295975 L 100.52743,20.023661 C 100.33318,22.42231 100.0852,24.108114 99.783495,25.081079 C 99.481748,26.054049 99.005607,26.857895 98.355069,27.492617 C 97.704498,28.127341 96.864398,28.607755 95.834765,28.933861 C 94.805104,29.259966 93.487216,29.360016 91.881098,29.234012 C 89.942658,29.081934 88.490521,28.74628 87.524688,28.227048 C 86.558841,27.707816 85.813665,27.073315 85.289158,26.323544 C 84.764643,25.573777 84.441349,24.805506 84.319276,24.018729 C 84.144285,22.852926 84.147284,21.152474 84.328274,18.917368 L 85.191273,8.2597606 z M 101.61784,29.925609 L 111.83386,12.587683 L 117.15662,15.62634 L 113.38404,29.277595 L 123.51268,19.254894 L 128.84746,22.30041 L 118.63144,39.638336 L 115.32724,37.752037 L 123.36905,24.104038 L 111.83081,35.755989 L 108.40646,33.801097 L 112.96384,18.16391 L 104.92204,31.811909 L 101.61784,29.925609 z M 120.76585,40.915992 L 136.37405,28.043879 L 139.0145,31.145871 L 132.8713,36.21218 L 138.04514,42.290408 L 144.18834,37.224099 L 146.82879,40.326091 L 131.22059,53.198204 L 128.58014,50.096212 L 135.40474,44.467955 L 130.23089,38.389727 L 123.40629,44.017984 L 120.76585,40.915992 z M 151.56032,45.893529 L 153.41195,49.506762 L 143.56515,54.395671 C 142.00256,55.17149 141.01271,55.719096 140.5956,56.038488 C 139.93075,56.562544 139.52211,57.227361 139.36971,58.032942 C 139.21729,58.838513 139.39965,59.745851 139.91678,60.754958 C 140.44222,61.780327 141.0513,62.447727 141.74399,62.757162 C 142.43667,63.066577 143.12016,63.120253 143.79445,62.91819 C 144.46873,62.716108 145.52516,62.257947 146.96375,61.543708 L 157.02136,56.550125 L 158.87298,60.163358 L 149.32384,64.904491 C 147.14115,65.988166 145.54919,66.65607 144.54795,66.908205 C 143.54667,67.160312 142.60151,67.177859 141.71246,66.960843 C 140.82339,66.7438 139.96971,66.287172 139.1514,65.590957 C 138.33309,64.894718 137.56113,63.838607 136.8355,62.422621 C 135.95973,60.713652 135.49609,59.318148 135.44459,58.236104 C 135.39309,57.15405 135.55636,56.197617 135.93437,55.366804 C 136.31238,54.535986 136.81106,53.864742 137.43041,53.35307 C 138.35119,52.599857 139.8285,51.718351 141.86235,50.70855 L 151.56032,45.893529 z M 141.47076,73.168145 L 161.03123,67.598247 L 163.43598,75.780323 C 164.04069,77.837874 164.3044,79.382911 164.22712,80.415437 C 164.14979,81.447945 163.74429,82.372294 163.01059,83.188487 C 162.27685,84.004655 161.3318,84.577386 160.17545,84.906679 C 158.70774,85.324597 157.37096,85.245063 156.16513,84.668077 C 154.95928,84.091063 153.98351,82.993113 153.2378,81.374222 C 152.9867,82.356589 152.64359,83.206242 152.20845,83.923182 C 151.7733,84.640098 150.93158,85.679171 149.68328,87.040405 L 146.5582,90.477898 L 145.19176,85.828693 L 148.62207,81.806153 C 149.84977,80.374879 150.60751,79.419024 150.89528,78.938583 C 151.18303,78.458127 151.33982,77.991251 151.36564,77.537953 C 151.39146,77.084642 151.27313,76.411456 151.01067,75.518394 L 150.77907,74.730393 L 142.61331,77.055616 L 141.47076,73.168145 z M 153.90128,73.841337 L 154.7466,76.71754 C 155.2947,78.582468 155.71701,79.724161 156.01353,80.142622 C 156.31001,80.561065 156.69255,80.8459 157.16116,80.997128 C 157.62972,81.148336 158.15755,81.140359 158.74466,80.973196 C 159.40288,80.78575 159.88354,80.461486 160.18664,80.000402 C 160.4897,79.539301 160.60199,78.978357 160.52346,78.317569 C 160.47528,77.989698 160.2196,77.037765 159.75643,75.461769 L 158.86477,72.427966 L 153.90128,73.841337 z M 145.1452,92.343664 L 165.22234,88.999758 L 165.90827,92.989914 L 145.83113,96.333821 L 145.1452,92.343664 z M 166.38917,88.98568 L 170.03208,88.378941 L 170.67167,92.099492 L 167.02875,92.706231 L 166.38917,88.98568 z M 146.8665,105.38172 L 155.42229,104.8954 L 166.76515,96.896628 L 167.04302,101.63288 L 159.27656,106.79899 L 167.58994,110.95524 L 167.86301,115.60959 L 155.63078,108.92347 L 147.10273,109.40821 L 146.8665,105.38172 z M 147.36664,117.8447 L 167.64973,119.61352 L 166.31728,134.41687 L 162.88603,134.11764 L 163.85565,123.34538 L 159.35905,122.95325 L 158.45686,132.97648 L 155.03945,132.67846 L 155.94165,122.65522 L 150.42121,122.1738 L 149.41729,133.32738 L 145.99987,133.02936 L 147.36664,117.8447 z M 144.39188,140.19424 L 160.85479,144.03003 L 162.24656,138.24269 L 165.59861,139.0237 L 161.87125,154.52312 L 158.51919,153.74211 L 159.90775,147.96808 L 143.44485,144.13229 L 144.39188,140.19424 z M 141.1353,151.91465 L 160.35737,158.52819 L 159.00074,162.34841 L 139.77867,155.73487 L 141.1353,151.91465 z M 161.38608,159.07041 L 164.87385,160.27041 L 163.60888,163.83251 L 160.12111,162.6325 L 161.38608,159.07041 z "
     id="text3739" />
</svg>
